<?xml version="1.0" standalone="no"?>
<!DOCTYPE svg PUBLIC "-//W3C//DTD SVG 1.1//EN" "http://www.w3.org/Graphics/SVG/1.1/DTD/svg11.dtd">

<svg width="564" height="312" version="1.1" xmlns="http://www.w3.org/2000/svg">
	<ellipse stroke="black" stroke-width="1" fill="none" cx="90.5" cy="86.5" rx="30" ry="30"/>
	<text x="73.5" y="92.5" font-family="Times New Roman" font-size="20">start</text>
	<ellipse stroke="black" stroke-width="1" fill="none" cx="280.5" cy="92.5" rx="30" ry="30"/>
	<text x="254.5" y="98.5" font-family="Times New Roman" font-size="20">MR+1</text>
	<ellipse stroke="black" stroke-width="1" fill="none" cx="492.5" cy="92.5" rx="30" ry="30"/>
	<text x="478.5" y="98.5" font-family="Times New Roman" font-size="20">MF</text>
	<ellipse stroke="black" stroke-width="1" fill="none" cx="484.5" cy="280.5" rx="30" ry="30"/>
	<text x="469.5" y="286.5" font-family="Times New Roman" font-size="20">ML</text>
	<ellipse stroke="black" stroke-width="1" fill="none" cx="90.5" cy="245.5" rx="30" ry="30"/>
	<text x="84.5" y="251.5" font-family="Times New Roman" font-size="20">F</text>
	<polygon stroke="black" stroke-width="1" points="2.5,86.5 60.5,86.5"/>
	<polygon fill="black" stroke-width="1" points="60.5,86.5 52.5,81.5 52.5,91.5"/>
	<polygon stroke="black" stroke-width="1" points="345.5,92.5 462.5,92.5"/>
	<text x="328.5" y="98.5" font-family="Times New Roman" font-size="20">L</text>
	<polygon fill="black" stroke-width="1" points="462.5,92.5 454.5,87.5 454.5,97.5"/>
	<path stroke="black" stroke-width="1" fill="none" d="M 267.275,65.703 A 22.5,22.5 0 1 1 293.725,65.703"/>
	<text x="271.5" y="16.5" font-family="Times New Roman" font-size="20">L`</text>
	<polygon fill="black" stroke-width="1" points="293.725,65.703 302.473,62.17 294.382,56.292"/>
	<path stroke="black" stroke-width="1" fill="none" d="M 483.503,64.004 A 22.5,22.5 0 1 1 509.646,68.025"/>
	<text x="493.5" y="14.5" font-family="Times New Roman" font-size="20">S,S2</text>
	<polygon fill="black" stroke-width="1" points="509.646,68.025 518.829,65.863 511.727,58.824"/>
	<polygon stroke="black" stroke-width="1" points="491.225,122.473 485.775,250.527"/>
	<polygon fill="black" stroke-width="1" points="485.775,250.527 491.111,242.747 481.12,242.322"/>
	<text x="461.5" y="192.5" font-family="Times New Roman" font-size="20">S3</text>
	<path stroke="black" stroke-width="1" fill="none" d="M 77.819,218.363 A 156.459,156.459 0 0 1 77.819,113.637"/>
	<polygon fill="black" stroke-width="1" points="77.819,218.363 79.854,209.15 70.43,212.497"/>
	<text x="49.5" y="172.5" font-family="Times New Roman" font-size="20">N</text>
	<polygon stroke="black" stroke-width="1" points="120.485,87.447 250.515,91.553"/>
	<polygon fill="black" stroke-width="1" points="250.515,91.553 242.677,86.303 242.361,96.298"/>
	<text x="178.5" y="110.5" font-family="Times New Roman" font-size="20">O</text>
	<path stroke="black" stroke-width="1" fill="none" d="M 500.526,255.278 A 22.5,22.5 0 1 1 514.268,277.879"/>
	<text x="548.5" y="238.5" font-family="Times New Roman" font-size="20">R</text>
	<polygon fill="black" stroke-width="1" points="514.268,277.879 521.831,283.517 522.651,273.551"/>
	<polygon stroke="black" stroke-width="1" points="457.586,267.248 117.414,99.752"/>
	<polygon fill="black" stroke-width="1" points="117.414,99.752 122.383,107.772 126.8,98.8"/>
	<text x="292.5" y="174.5" font-family="Times New Roman" font-size="20">&#949;</text>
	<path stroke="black" stroke-width="1" fill="none" d="M 103.581,113.444 A 151.926,151.926 0 0 1 103.581,218.556"/>
	<polygon fill="black" stroke-width="1" points="103.581,113.444 101.657,122.68 111.039,119.22"/>
	<text x="117.5" y="171.5" font-family="Times New Roman" font-size="20">&#949;</text>
</svg>
