<svg width="1130" height="649" viewBox="0 0 1130 649" fill="none" xmlns="http://www.w3.org/2000/svg">
<path d="M336.953 156.884V1H536.24C551.503 1 566.563 4.49373 580.267 11.2135L586.539 14.2893C662.909 51.7371 660.63 161.372 582.771 195.614L559.438 205.876L597.895 224.928C672.208 261.743 671.992 367.809 597.53 404.321L580.267 412.786C566.563 419.506 551.503 423 536.24 423H336.953V291.612H434.846V325.016H480.503C502.594 325.016 520.503 307.107 520.503 285.016V278.187C520.503 261.619 507.072 248.187 490.503 248.187H486.018V156.884H490.503C507.072 156.884 520.503 143.452 520.503 126.884V123.303C520.503 106.183 506.624 92.3034 489.503 92.3034H434.846V156.884H336.953Z" stroke="white"/>
<path d="M681.805 423V65.5805H779.698V423H681.805Z" stroke="white"/>
<path d="M1129 1H829.757V92.3034H941.5V423H1019.5V92.3034H1129V1Z" stroke="white"/>
<path d="M284.669 190.288H434.846V248.187H284.669L260.195 291.612H1V248.187H37.7101V190.288H1V139.069H260.195L284.669 190.288Z" stroke="white"/>
<mask id="path-2-outside-1_1_15" maskUnits="userSpaceOnUse" x="588" y="458" width="298" height="71" fill="black">
<rect fill="white" x="588" y="458" width="298" height="71"/>
<path d="M607.031 527H589.828C589.578 527 589.453 526.844 589.453 526.531L589.641 460.578C589.641 460.328 589.766 460.203 590.016 460.203H608.484C612.078 460.203 615.344 461.078 618.281 462.828C621.156 464.578 623.422 466.906 625.078 469.812C626.734 472.688 627.562 475.812 627.562 479.188C627.562 481.938 626.938 484.5 625.688 486.875C624.438 489.25 622.953 491.172 621.234 492.641C623.078 494.484 624.516 496.625 625.547 499.062C626.578 501.5 627.094 504.062 627.094 506.75C627.094 510.469 626.203 513.859 624.422 516.922C622.609 519.984 620.188 522.438 617.156 524.281C614.125 526.094 610.75 527 607.031 527ZM608.484 471.594H601.172V486.688H608.484C610.703 486.688 612.5 485.906 613.875 484.344C615.25 482.75 615.938 481.031 615.938 479.188C615.938 477.156 615.203 475.391 613.734 473.891C612.266 472.359 610.516 471.594 608.484 471.594ZM607.031 498.312H601.172L601.078 515.281H607.031C609.344 515.281 611.328 514.438 612.984 512.75C614.641 511.062 615.469 509.062 615.469 506.75C615.469 504.438 614.641 502.453 612.984 500.797C611.328 499.141 609.344 498.312 607.031 498.312ZM630.75 526.531L642.656 460.578C642.719 460.328 642.875 460.203 643.125 460.203H657.047C657.297 460.203 657.453 460.328 657.516 460.578L668.953 526.531C668.984 526.844 668.859 527 668.578 527H657.938C657.625 527 657.453 526.844 657.422 526.531L656.391 519.5H643.312L642.281 526.531C642.25 526.844 642.094 527 641.812 527H631.125C630.875 527 630.75 526.844 630.75 526.531ZM649.547 482.281L645.234 509.234H654.469L650.531 482.281L649.969 478.719L649.547 482.281ZM685.406 527H675.797C675.297 527 675.047 526.781 675.047 526.344L674.953 460.953C674.953 460.453 675.203 460.203 675.703 460.203H684.375L700.594 498.031L700.125 460.953C700.125 460.453 700.406 460.203 700.969 460.203H710.484C710.859 460.203 711.047 460.453 711.047 460.953L711.141 526.438C711.141 526.812 710.984 527 710.672 527H702.234L685.594 491.656L686.297 526.25C686.297 526.75 686 527 685.406 527ZM737.062 527.938C733.594 527.938 730.469 527.078 727.688 525.359C724.875 523.641 722.609 521.328 720.891 518.422C719.203 515.516 718.359 512.266 718.359 508.672V478.25C718.359 474.75 719.219 471.562 720.938 468.688C722.625 465.781 724.891 463.469 727.734 461.75C730.578 460 733.688 459.125 737.062 459.125C740.594 459.125 743.781 459.969 746.625 461.656C749.469 463.375 751.719 465.672 753.375 468.547C755.062 471.422 755.906 474.656 755.906 478.25V482.656C755.906 482.906 755.75 483.031 755.438 483.031H744.656C744.406 483.031 744.281 482.906 744.281 482.656V479C744.281 476.562 743.594 474.547 742.219 472.953C740.844 471.359 739.125 470.562 737.062 470.562C735.219 470.562 733.578 471.328 732.141 472.859C730.703 474.391 729.984 476.188 729.984 478.25V508.672C729.984 510.766 730.688 512.578 732.094 514.109C733.5 515.609 735.156 516.359 737.062 516.359C739.125 516.359 740.844 515.625 742.219 514.156C743.594 512.656 744.281 510.828 744.281 508.672V503.938H737.578C737.234 503.938 737.062 503.781 737.062 503.469V492.734C737.062 492.422 737.234 492.266 737.578 492.266H755.531C755.781 492.266 755.906 492.422 755.906 492.734V508.672C755.906 512.266 755.062 515.516 753.375 518.422C751.656 521.328 749.391 523.641 746.578 525.359C743.766 527.078 740.594 527.938 737.062 527.938ZM794.109 527H763.078C762.828 527 762.703 526.844 762.703 526.531L762.797 460.578C762.797 460.328 762.922 460.203 763.172 460.203H794.016C794.266 460.203 794.391 460.359 794.391 460.672V471.406C794.391 471.656 794.266 471.781 794.016 471.781H774.328V486.781H794.016C794.266 486.781 794.391 486.906 794.391 487.156L794.484 498.031C794.484 498.281 794.359 498.406 794.109 498.406H774.328V515.188H794.109C794.359 515.188 794.484 515.344 794.484 515.656V526.625C794.484 526.875 794.359 527 794.109 527ZM814.266 527H803.391C803.141 527 803.016 526.844 803.016 526.531L803.203 460.578C803.203 460.328 803.328 460.203 803.578 460.203H822.984C826.453 460.203 829.641 461.047 832.547 462.734C835.453 464.422 837.766 466.688 839.484 469.531C841.234 472.375 842.109 475.594 842.109 479.188C842.109 481.531 841.75 483.656 841.031 485.562C840.312 487.469 839.469 489.078 838.5 490.391C837.562 491.703 836.703 492.672 835.922 493.297C839.391 497.141 841.125 501.656 841.125 506.844L841.219 526.531C841.219 526.844 841.062 527 840.75 527H829.875C829.625 527 829.5 526.906 829.5 526.719V506.844C829.5 504.531 828.688 502.531 827.062 500.844C825.438 499.156 823.438 498.312 821.062 498.312H814.734L814.641 526.531C814.641 526.844 814.516 527 814.266 527ZM822.984 471.688H814.734V486.781H822.984C824.953 486.781 826.703 486.047 828.234 484.578C829.797 483.109 830.578 481.312 830.578 479.188C830.578 477.156 829.828 475.406 828.328 473.938C826.828 472.438 825.047 471.688 822.984 471.688ZM865.641 527.938C862.234 527.938 859.094 527.062 856.219 525.312C853.375 523.562 851.094 521.234 849.375 518.328C847.688 515.391 846.844 512.172 846.844 508.672V504.266C846.844 503.922 847 503.75 847.312 503.75H858.094C858.344 503.75 858.469 503.922 858.469 504.266V508.672C858.469 510.766 859.172 512.578 860.578 514.109C861.984 515.609 863.672 516.359 865.641 516.359C867.641 516.359 869.344 515.594 870.75 514.062C872.156 512.5 872.859 510.703 872.859 508.672C872.859 506.328 871.328 504.281 868.266 502.531C867.766 502.219 867.109 501.844 866.297 501.406C865.516 500.938 864.578 500.406 863.484 499.812C862.391 499.219 861.328 498.641 860.297 498.078C859.266 497.484 858.266 496.922 857.297 496.391C853.797 494.328 851.188 491.75 849.469 488.656C847.781 485.531 846.938 482.031 846.938 478.156C846.938 474.594 847.812 471.375 849.562 468.5C851.312 465.656 853.594 463.406 856.406 461.75C859.25 460.062 862.328 459.219 865.641 459.219C869.047 459.219 872.172 460.062 875.016 461.75C877.859 463.469 880.125 465.75 881.812 468.594C883.531 471.438 884.391 474.625 884.391 478.156V486.031C884.391 486.281 884.266 486.406 884.016 486.406H873.234C872.984 486.406 872.859 486.281 872.859 486.031L872.766 478.156C872.766 475.906 872.062 474.078 870.656 472.672C869.25 471.266 867.578 470.562 865.641 470.562C863.672 470.562 861.984 471.312 860.578 472.812C859.172 474.312 858.469 476.094 858.469 478.156C858.469 480.25 858.906 482 859.781 483.406C860.688 484.812 862.328 486.156 864.703 487.438C864.953 487.562 865.531 487.875 866.438 488.375C867.344 488.875 868.344 489.438 869.438 490.062C870.562 490.656 871.578 491.203 872.484 491.703C873.391 492.172 873.938 492.453 874.125 492.547C877.312 494.328 879.828 496.516 881.672 499.109C883.547 501.703 884.484 504.891 884.484 508.672C884.484 512.328 883.641 515.609 881.953 518.516C880.234 521.422 877.953 523.719 875.109 525.406C872.266 527.094 869.109 527.938 865.641 527.938Z"/>
</mask>
<path d="M589.453 526.531L588.453 526.528V526.531H589.453ZM589.641 460.578L590.641 460.581V460.578H589.641ZM618.281 462.828L618.801 461.974L618.793 461.969L618.281 462.828ZM625.078 469.812L624.209 470.308L624.212 470.312L625.078 469.812ZM621.234 492.641L620.585 491.88L619.763 492.583L620.527 493.348L621.234 492.641ZM624.422 516.922L625.282 517.431L625.286 517.425L624.422 516.922ZM617.156 524.281L617.669 525.14L617.676 525.136L617.156 524.281ZM601.172 471.594V470.594H600.172V471.594H601.172ZM601.172 486.688H600.172V487.688H601.172V486.688ZM613.875 484.344L614.626 485.004L614.632 484.997L613.875 484.344ZM613.734 473.891L613.013 474.583L613.02 474.59L613.734 473.891ZM601.172 498.312V497.312H600.177L600.172 498.307L601.172 498.312ZM601.078 515.281L600.078 515.276L600.073 516.281H601.078V515.281ZM607.031 526H589.828V528H607.031V526ZM589.828 526C589.868 526 589.949 526.006 590.049 526.048C590.154 526.092 590.252 526.164 590.328 526.258C590.467 526.433 590.453 526.581 590.453 526.531H588.453C588.453 526.794 588.501 527.177 588.766 527.508C589.065 527.881 589.482 528 589.828 528V526ZM590.453 526.534L590.641 460.581L588.641 460.575L588.453 526.528L590.453 526.534ZM590.641 460.578C590.641 460.607 590.633 460.813 590.441 461.004C590.25 461.195 590.045 461.203 590.016 461.203V459.203C589.736 459.203 589.343 459.274 589.027 459.59C588.711 459.906 588.641 460.299 588.641 460.578H590.641ZM590.016 461.203H608.484V459.203H590.016V461.203ZM608.484 461.203C611.908 461.203 614.995 462.034 617.769 463.687L618.793 461.969C615.693 460.122 612.249 459.203 608.484 459.203V461.203ZM617.761 463.682C620.492 465.345 622.638 467.55 624.209 470.308L625.947 469.317C624.206 466.263 621.82 463.812 618.801 461.974L617.761 463.682ZM624.212 470.312C625.779 473.032 626.562 475.985 626.562 479.188H628.562C628.562 475.64 627.69 472.343 625.945 469.313L624.212 470.312ZM626.562 479.188C626.562 481.779 625.975 484.181 624.803 486.409L626.572 487.341C627.9 484.819 628.562 482.096 628.562 479.188H626.562ZM624.803 486.409C623.601 488.693 622.191 490.508 620.585 491.88L621.884 493.401C623.715 491.836 625.274 489.807 626.572 487.341L624.803 486.409ZM620.527 493.348C622.279 495.099 623.644 497.131 624.626 499.452L626.468 498.673C625.387 496.119 623.878 493.87 621.941 491.934L620.527 493.348ZM624.626 499.452C625.604 501.764 626.094 504.194 626.094 506.75H628.094C628.094 503.931 627.552 501.236 626.468 498.673L624.626 499.452ZM626.094 506.75C626.094 510.301 625.245 513.517 623.557 516.419L625.286 517.425C627.161 514.202 628.094 510.636 628.094 506.75H626.094ZM623.561 516.413C621.832 519.334 619.527 521.669 616.637 523.427L617.676 525.136C620.848 523.206 623.387 520.635 625.282 517.431L623.561 516.413ZM616.643 523.423C613.775 525.138 610.579 526 607.031 526V528C610.921 528 614.475 527.05 617.669 525.14L616.643 523.423ZM608.484 470.594H601.172V472.594H608.484V470.594ZM600.172 471.594V486.688H602.172V471.594H600.172ZM601.172 487.688H608.484V485.688H601.172V487.688ZM608.484 487.688C610.969 487.688 613.047 486.798 614.626 485.004L613.124 483.683C611.953 485.014 610.437 485.688 608.484 485.688V487.688ZM614.632 484.997C616.14 483.249 616.938 481.305 616.938 479.188H614.938C614.938 480.758 614.36 482.251 613.118 483.691L614.632 484.997ZM616.938 479.188C616.938 476.885 616.094 474.871 614.449 473.191L613.02 474.59C614.312 475.91 614.938 477.427 614.938 479.188H616.938ZM614.456 473.198C612.808 471.48 610.801 470.594 608.484 470.594V472.594C610.23 472.594 611.723 473.238 613.013 474.583L614.456 473.198ZM607.031 497.312H601.172V499.312H607.031V497.312ZM600.172 498.307L600.078 515.276L602.078 515.287L602.172 498.318L600.172 498.307ZM601.078 516.281H607.031V514.281H601.078V516.281ZM607.031 516.281C609.619 516.281 611.859 515.325 613.698 513.45L612.271 512.05C610.798 513.55 609.069 514.281 607.031 514.281V516.281ZM613.698 513.45C615.533 511.581 616.469 509.331 616.469 506.75H614.469C614.469 508.794 613.748 510.544 612.271 512.05L613.698 513.45ZM616.469 506.75C616.469 504.168 615.533 501.931 613.691 500.09L612.277 501.504C613.749 502.975 614.469 504.707 614.469 506.75H616.469ZM613.691 500.09C611.85 498.249 609.613 497.312 607.031 497.312V499.312C609.075 499.312 610.806 500.033 612.277 501.504L613.691 500.09ZM630.75 526.531L629.766 526.354L629.75 526.442V526.531H630.75ZM642.656 460.578L641.686 460.336L641.678 460.368L641.672 460.4L642.656 460.578ZM657.516 460.578L658.501 460.407L658.495 460.371L658.486 460.336L657.516 460.578ZM668.953 526.531L669.948 526.432L669.945 526.396L669.938 526.36L668.953 526.531ZM657.422 526.531L658.417 526.432L658.415 526.409L658.411 526.386L657.422 526.531ZM656.391 519.5L657.38 519.355L657.255 518.5H656.391V519.5ZM643.312 519.5V518.5H642.448L642.323 519.355L643.312 519.5ZM642.281 526.531L641.292 526.386L641.288 526.409L641.286 526.432L642.281 526.531ZM649.547 482.281L650.534 482.439L650.538 482.419L650.54 482.399L649.547 482.281ZM645.234 509.234L644.247 509.076L644.062 510.234H645.234V509.234ZM654.469 509.234V510.234H655.625L655.458 509.09L654.469 509.234ZM650.531 482.281L651.521 482.137L651.519 482.125L650.531 482.281ZM649.969 478.719L650.957 478.563L648.976 478.601L649.969 478.719ZM631.734 526.709L643.64 460.756L641.672 460.4L629.766 526.354L631.734 526.709ZM643.626 460.821C643.62 460.847 643.582 460.969 643.445 461.078C643.305 461.189 643.169 461.203 643.125 461.203V459.203C642.831 459.203 642.492 459.279 642.196 459.516C641.903 459.75 641.755 460.06 641.686 460.336L643.626 460.821ZM643.125 461.203H657.047V459.203H643.125V461.203ZM657.047 461.203C657.003 461.203 656.867 461.189 656.727 461.078C656.59 460.969 656.552 460.847 656.545 460.821L658.486 460.336C658.417 460.06 658.269 459.75 657.976 459.516C657.68 459.279 657.341 459.203 657.047 459.203V461.203ZM656.53 460.749L667.968 526.702L669.938 526.36L658.501 460.407L656.53 460.749ZM667.958 526.631C667.962 526.67 667.929 526.474 668.102 526.258C668.298 526.014 668.545 526 668.578 526V528C668.893 528 669.343 527.908 669.664 527.508C669.962 527.135 669.975 526.705 669.948 526.432L667.958 526.631ZM668.578 526H657.938V528H668.578V526ZM657.938 526C657.943 526 658.093 526.003 658.247 526.143C658.4 526.282 658.417 526.43 658.417 526.432L656.427 526.631C656.458 526.945 656.577 527.327 656.902 527.623C657.227 527.919 657.62 528 657.938 528V526ZM658.411 526.386L657.38 519.355L655.401 519.645L656.432 526.676L658.411 526.386ZM656.391 518.5H643.312V520.5H656.391V518.5ZM642.323 519.355L641.292 526.386L643.271 526.676L644.302 519.645L642.323 519.355ZM641.286 526.432C641.284 526.453 641.292 526.317 641.434 526.176C641.591 526.019 641.764 526 641.812 526V528C642.142 528 642.534 527.903 642.848 527.59C643.146 527.292 643.247 526.922 643.276 526.631L641.286 526.432ZM641.812 526H631.125V528H641.812V526ZM631.125 526C631.165 526 631.246 526.006 631.346 526.048C631.451 526.092 631.549 526.164 631.625 526.258C631.764 526.433 631.75 526.581 631.75 526.531H629.75C629.75 526.794 629.798 527.177 630.063 527.508C630.362 527.881 630.779 528 631.125 528V526ZM648.559 482.123L644.247 509.076L646.222 509.392L650.534 482.439L648.559 482.123ZM645.234 510.234H654.469V508.234H645.234V510.234ZM655.458 509.09L651.521 482.137L649.542 482.426L653.479 509.379L655.458 509.09ZM651.519 482.125L650.957 478.563L648.981 478.875L649.543 482.437L651.519 482.125ZM648.976 478.601L648.554 482.164L650.54 482.399L650.962 478.836L648.976 478.601ZM675.047 526.344H676.047L676.047 526.342L675.047 526.344ZM674.953 460.953H673.953L673.953 460.955L674.953 460.953ZM684.375 460.203L685.294 459.809L685.034 459.203H684.375V460.203ZM700.594 498.031L699.675 498.425L701.594 498.019L700.594 498.031ZM700.125 460.953H699.125L699.125 460.966L700.125 460.953ZM711.047 460.953L710.047 460.953L710.047 460.955L711.047 460.953ZM711.141 526.438L712.141 526.437L712.141 526.436L711.141 526.438ZM702.234 527L701.33 527.426L701.6 528H702.234V527ZM685.594 491.656L686.498 491.23L684.594 491.677L685.594 491.656ZM686.297 526.25H687.297V526.24L687.297 526.23L686.297 526.25ZM685.406 526H675.797V528H685.406V526ZM675.797 526C675.671 526 675.763 525.97 675.893 526.083C675.96 526.142 676.005 526.213 676.028 526.275C676.049 526.331 676.047 526.36 676.047 526.344H674.047C674.047 526.754 674.17 527.234 674.576 527.589C674.956 527.921 675.423 528 675.797 528V526ZM676.047 526.342L675.953 460.952L673.953 460.955L674.047 526.345L676.047 526.342ZM675.953 460.953C675.953 460.857 675.976 460.969 675.848 461.098C675.719 461.226 675.607 461.203 675.703 461.203V459.203C675.299 459.203 674.812 459.305 674.434 459.684C674.055 460.062 673.953 460.549 673.953 460.953H675.953ZM675.703 461.203H684.375V459.203H675.703V461.203ZM683.456 460.597L699.675 498.425L701.513 497.637L685.294 459.809L683.456 460.597ZM701.594 498.019L701.125 460.94L699.125 460.966L699.594 498.044L701.594 498.019ZM701.125 460.953C701.125 460.919 701.13 460.934 701.114 460.976C701.096 461.025 701.059 461.086 701 461.138C700.886 461.24 700.815 461.203 700.969 461.203V459.203C700.56 459.203 700.067 459.291 699.672 459.643C699.253 460.015 699.125 460.516 699.125 460.953H701.125ZM700.969 461.203H710.484V459.203H700.969V461.203ZM710.484 461.203C710.468 461.203 710.407 461.2 710.324 461.164C710.236 461.125 710.16 461.062 710.106 460.991C710.057 460.924 710.043 460.873 710.042 460.868C710.04 460.863 710.047 460.887 710.047 460.953H712.047C712.047 460.607 711.987 460.165 711.706 459.791C711.385 459.362 710.916 459.203 710.484 459.203V461.203ZM710.047 460.955L710.141 526.439L712.141 526.436L712.047 460.952L710.047 460.955ZM710.141 526.438C710.141 526.511 710.122 526.38 710.255 526.219C710.326 526.134 710.415 526.072 710.506 526.036C710.59 526.003 710.652 526 710.672 526V528C711.035 528 711.473 527.882 711.792 527.5C712.082 527.152 712.141 526.739 712.141 526.438H710.141ZM710.672 526H702.234V528H710.672V526ZM703.139 526.574L686.498 491.23L684.689 492.082L701.33 527.426L703.139 526.574ZM684.594 491.677L685.297 526.27L687.297 526.23L686.594 491.636L684.594 491.677ZM685.297 526.25C685.297 526.278 685.292 526.258 685.311 526.21C685.333 526.156 685.373 526.096 685.43 526.048C685.484 526.002 685.526 525.99 685.526 525.99C685.526 525.99 685.525 525.99 685.525 525.99C685.525 525.991 685.524 525.991 685.524 525.991C685.523 525.991 685.521 525.992 685.518 525.992C685.513 525.993 685.506 525.994 685.496 525.995C685.475 525.998 685.446 526 685.406 526V528C685.819 528 686.316 527.917 686.718 527.577C687.154 527.21 687.297 526.704 687.297 526.25H685.297ZM727.688 525.359L728.213 524.509L728.209 524.506L727.688 525.359ZM720.891 518.422L720.026 518.924L720.03 518.931L720.891 518.422ZM720.938 468.688L721.796 469.201L721.802 469.19L720.938 468.688ZM727.734 461.75L728.252 462.606L728.258 462.602L727.734 461.75ZM746.625 461.656L747.142 460.8L747.135 460.796L746.625 461.656ZM753.375 468.547L752.508 469.046L752.513 469.053L753.375 468.547ZM732.094 514.109L731.357 514.786L731.364 514.793L732.094 514.109ZM742.219 514.156L742.949 514.84L742.956 514.832L742.219 514.156ZM744.281 503.938H745.281V502.938H744.281V503.938ZM753.375 518.422L754.236 518.931L754.24 518.924L753.375 518.422ZM737.062 526.938C733.768 526.938 730.827 526.124 728.213 524.509L727.162 526.21C730.111 528.032 733.42 528.938 737.062 528.938V526.938ZM728.209 524.506C725.539 522.875 723.389 520.682 721.751 517.913L720.03 518.931C721.83 521.974 724.211 524.406 727.166 526.213L728.209 524.506ZM721.755 517.92C720.163 515.177 719.359 512.102 719.359 508.672H717.359C717.359 512.429 718.244 515.855 720.026 518.924L721.755 517.92ZM719.359 508.672V478.25H717.359V508.672H719.359ZM719.359 478.25C719.359 474.922 720.174 471.913 721.796 469.201L720.079 468.174C718.263 471.212 717.359 474.578 717.359 478.25H719.359ZM721.802 469.19C723.406 466.427 725.553 464.237 728.252 462.606L727.217 460.894C724.228 462.701 721.844 465.136 720.073 468.185L721.802 469.19ZM728.258 462.602C730.943 460.95 733.87 460.125 737.062 460.125V458.125C733.505 458.125 730.213 459.05 727.21 460.898L728.258 462.602ZM737.062 460.125C740.427 460.125 743.436 460.927 746.115 462.516L747.135 460.796C744.127 459.011 740.761 458.125 737.062 458.125V460.125ZM746.108 462.512C748.807 464.144 750.937 466.318 752.509 469.046L754.241 468.048C752.501 465.026 750.13 462.606 747.142 460.8L746.108 462.512ZM752.513 469.053C754.103 471.763 754.906 474.82 754.906 478.25H756.906C756.906 474.493 756.022 471.081 754.237 468.041L752.513 469.053ZM754.906 478.25V482.656H756.906V478.25H754.906ZM754.906 482.656C754.906 482.616 754.912 482.535 754.954 482.436C754.998 482.33 755.07 482.232 755.164 482.157C755.339 482.017 755.487 482.031 755.438 482.031V484.031C755.701 484.031 756.083 483.983 756.414 483.718C756.787 483.42 756.906 483.002 756.906 482.656H754.906ZM755.438 482.031H744.656V484.031H755.438V482.031ZM744.656 482.031C744.685 482.031 744.891 482.039 745.082 482.23C745.273 482.422 745.281 482.627 745.281 482.656H743.281C743.281 482.935 743.352 483.328 743.668 483.645C743.984 483.961 744.377 484.031 744.656 484.031V482.031ZM745.281 482.656V479H743.281V482.656H745.281ZM745.281 479C745.281 476.363 744.532 474.103 742.976 472.3L741.462 473.606C742.656 474.99 743.281 476.762 743.281 479H745.281ZM742.976 472.3C741.415 470.491 739.423 469.562 737.062 469.562V471.562C738.827 471.562 740.272 472.228 741.462 473.606L742.976 472.3ZM737.062 469.562C734.903 469.562 733.009 470.473 731.412 472.175L732.87 473.544C734.147 472.183 735.534 471.562 737.062 471.562V469.562ZM731.412 472.175C729.804 473.888 728.984 475.928 728.984 478.25H730.984C730.984 476.447 731.603 474.893 732.87 473.544L731.412 472.175ZM728.984 478.25V508.672H730.984V478.25H728.984ZM728.984 508.672C728.984 511.014 729.78 513.069 731.357 514.786L732.83 513.433C731.595 512.088 730.984 510.517 730.984 508.672H728.984ZM731.364 514.793C732.943 516.477 734.856 517.359 737.062 517.359V515.359C735.456 515.359 734.057 514.741 732.823 513.425L731.364 514.793ZM737.062 517.359C739.394 517.359 741.379 516.516 742.949 514.84L741.489 513.473C740.308 514.734 738.856 515.359 737.062 515.359V517.359ZM742.956 514.832C744.511 513.136 745.281 511.062 745.281 508.672H743.281C743.281 510.594 742.677 512.177 741.482 513.481L742.956 514.832ZM745.281 508.672V503.938H743.281V508.672H745.281ZM744.281 502.938H737.578V504.938H744.281V502.938ZM737.578 502.938C737.538 502.938 737.695 502.926 737.864 503.08C738.052 503.251 738.062 503.445 738.062 503.469H736.062C736.062 503.805 736.159 504.234 736.519 504.56C736.86 504.871 737.274 504.938 737.578 504.938V502.938ZM738.062 503.469V492.734H736.062V503.469H738.062ZM738.062 492.734C738.062 492.758 738.052 492.952 737.864 493.123C737.695 493.277 737.538 493.266 737.578 493.266V491.266C737.274 491.266 736.86 491.333 736.519 491.643C736.159 491.97 736.062 492.398 736.062 492.734H738.062ZM737.578 493.266H755.531V491.266H737.578V493.266ZM755.531 493.266C755.491 493.266 755.41 493.26 755.311 493.218C755.205 493.174 755.107 493.102 755.032 493.008C754.892 492.833 754.906 492.685 754.906 492.734H756.906C756.906 492.471 756.858 492.089 756.593 491.758C756.295 491.385 755.877 491.266 755.531 491.266V493.266ZM754.906 492.734V508.672H756.906V492.734H754.906ZM754.906 508.672C754.906 512.102 754.103 515.177 752.51 517.92L754.24 518.924C756.022 515.855 756.906 512.429 756.906 508.672H754.906ZM752.514 517.913C750.877 520.682 748.726 522.875 746.057 524.506L747.1 526.213C750.055 524.406 752.436 521.974 754.236 518.931L752.514 517.913ZM746.057 524.506C743.412 526.122 740.423 526.938 737.062 526.938V528.938C740.764 528.938 744.119 528.034 747.1 526.213L746.057 524.506ZM762.703 526.531L761.703 526.53V526.531H762.703ZM762.797 460.578L763.797 460.58V460.578H762.797ZM774.328 471.781V470.781H773.328V471.781H774.328ZM774.328 486.781H773.328V487.781H774.328V486.781ZM794.391 487.156H793.391L793.391 487.165L794.391 487.156ZM794.484 498.031H795.484L795.484 498.023L794.484 498.031ZM774.328 498.406V497.406H773.328V498.406H774.328ZM774.328 515.188H773.328V516.188H774.328V515.188ZM794.109 526H763.078V528H794.109V526ZM763.078 526C763.118 526 763.199 526.006 763.299 526.048C763.404 526.092 763.502 526.164 763.578 526.258C763.717 526.433 763.703 526.581 763.703 526.531H761.703C761.703 526.794 761.751 527.177 762.016 527.508C762.315 527.881 762.732 528 763.078 528V526ZM763.703 526.533L763.797 460.58L761.797 460.577L761.703 526.53L763.703 526.533ZM763.797 460.578C763.797 460.607 763.789 460.813 763.598 461.004C763.407 461.195 763.201 461.203 763.172 461.203V459.203C762.893 459.203 762.5 459.274 762.184 459.59C761.867 459.906 761.797 460.299 761.797 460.578H763.797ZM763.172 461.203H794.016V459.203H763.172V461.203ZM794.016 461.203C793.976 461.203 793.895 461.197 793.795 461.155C793.689 461.111 793.591 461.039 793.516 460.945C793.376 460.77 793.391 460.622 793.391 460.672H795.391C795.391 460.409 795.342 460.026 795.078 459.696C794.779 459.322 794.361 459.203 794.016 459.203V461.203ZM793.391 460.672V471.406H795.391V460.672H793.391ZM793.391 471.406C793.391 471.377 793.399 471.172 793.59 470.98C793.781 470.789 793.986 470.781 794.016 470.781V472.781C794.295 472.781 794.688 472.711 795.004 472.395C795.32 472.078 795.391 471.685 795.391 471.406H793.391ZM794.016 470.781H774.328V472.781H794.016V470.781ZM773.328 471.781V486.781H775.328V471.781H773.328ZM774.328 487.781H794.016V485.781H774.328V487.781ZM794.016 487.781C793.986 487.781 793.781 487.773 793.59 487.582C793.399 487.391 793.391 487.185 793.391 487.156H795.391C795.391 486.877 795.32 486.484 795.004 486.168C794.688 485.852 794.295 485.781 794.016 485.781V487.781ZM793.391 487.165L793.484 498.04L795.484 498.023L795.391 487.148L793.391 487.165ZM793.484 498.031C793.484 498.002 793.492 497.797 793.684 497.605C793.875 497.414 794.08 497.406 794.109 497.406V499.406C794.389 499.406 794.782 499.336 795.098 499.02C795.414 498.703 795.484 498.31 795.484 498.031H793.484ZM794.109 497.406H774.328V499.406H794.109V497.406ZM773.328 498.406V515.188H775.328V498.406H773.328ZM774.328 516.188H794.109V514.188H774.328V516.188ZM794.109 516.188C794.069 516.188 793.988 516.181 793.889 516.14C793.783 516.096 793.685 516.024 793.61 515.929C793.47 515.755 793.484 515.607 793.484 515.656H795.484C795.484 515.393 795.436 515.011 795.171 514.68C794.873 514.307 794.455 514.188 794.109 514.188V516.188ZM793.484 515.656V526.625H795.484V515.656H793.484ZM793.484 526.625C793.484 526.596 793.492 526.39 793.684 526.199C793.875 526.008 794.08 526 794.109 526V528C794.389 528 794.782 527.93 795.098 527.613C795.414 527.297 795.484 526.904 795.484 526.625H793.484ZM803.016 526.531L802.016 526.528V526.531H803.016ZM803.203 460.578L804.203 460.581V460.578H803.203ZM839.484 469.531L838.629 470.049L838.633 470.055L839.484 469.531ZM838.5 490.391L837.695 489.797L837.691 489.803L837.686 489.809L838.5 490.391ZM835.922 493.297L835.297 492.516L834.468 493.179L835.179 493.967L835.922 493.297ZM841.125 506.844H840.125L840.125 506.849L841.125 506.844ZM841.219 526.531H842.219L842.219 526.526L841.219 526.531ZM814.734 498.312V497.312H813.738L813.734 498.309L814.734 498.312ZM814.641 526.531L813.641 526.528V526.531H814.641ZM814.734 471.688V470.688H813.734V471.688H814.734ZM814.734 486.781H813.734V487.781H814.734V486.781ZM828.234 484.578L827.549 483.849L827.542 483.856L828.234 484.578ZM828.328 473.938L827.621 474.645L827.629 474.652L828.328 473.938ZM814.266 526H803.391V528H814.266V526ZM803.391 526C803.431 526 803.512 526.006 803.611 526.048C803.717 526.092 803.815 526.164 803.89 526.258C804.03 526.433 804.016 526.581 804.016 526.531H802.016C802.016 526.794 802.064 527.177 802.329 527.508C802.627 527.881 803.045 528 803.391 528V526ZM804.016 526.534L804.203 460.581L802.203 460.575L802.016 526.528L804.016 526.534ZM804.203 460.578C804.203 460.607 804.195 460.813 804.004 461.004C803.813 461.195 803.607 461.203 803.578 461.203V459.203C803.299 459.203 802.906 459.274 802.59 459.59C802.274 459.906 802.203 460.299 802.203 460.578H804.203ZM803.578 461.203H822.984V459.203H803.578V461.203ZM822.984 461.203C826.283 461.203 829.296 462.003 832.045 463.599L833.049 461.87C829.985 460.091 826.624 459.203 822.984 459.203V461.203ZM832.045 463.599C834.808 465.203 836.998 467.35 838.629 470.049L840.34 469.014C838.534 466.025 836.099 463.64 833.049 461.87L832.045 463.599ZM838.633 470.055C840.278 472.729 841.109 475.764 841.109 479.188H843.109C843.109 475.423 842.19 472.021 840.336 469.007L838.633 470.055ZM841.109 479.188C841.109 481.429 840.766 483.432 840.096 485.21L841.967 485.915C842.734 483.881 843.109 481.634 843.109 479.188H841.109ZM840.096 485.21C839.402 487.05 838.598 488.574 837.695 489.797L839.305 490.984C840.339 489.582 841.223 487.887 841.967 485.915L840.096 485.21ZM837.686 489.809C836.774 491.087 835.976 491.973 835.297 492.516L836.547 494.078C837.43 493.371 838.351 492.32 839.314 490.972L837.686 489.809ZM835.179 493.967C838.482 497.626 840.125 501.903 840.125 506.844H842.125C842.125 501.409 840.299 496.655 836.664 492.627L835.179 493.967ZM840.125 506.849L840.219 526.536L842.219 526.526L842.125 506.839L840.125 506.849ZM840.219 526.531C840.219 526.529 840.219 526.486 840.241 526.42C840.264 526.349 840.311 526.259 840.394 526.176C840.478 526.093 840.568 526.046 840.639 526.022C840.705 526 840.748 526 840.75 526V528C841.06 528 841.477 527.922 841.809 527.59C842.14 527.258 842.219 526.842 842.219 526.531H840.219ZM840.75 526H829.875V528H840.75V526ZM829.875 526C829.846 526 830.007 525.99 830.194 526.13C830.297 526.207 830.382 526.312 830.437 526.436C830.489 526.553 830.5 526.656 830.5 526.719H828.5C828.5 527.056 828.628 527.455 828.994 527.73C829.306 527.964 829.654 528 829.875 528V526ZM830.5 526.719V506.844H828.5V526.719H830.5ZM830.5 506.844C830.5 504.269 829.585 502.021 827.783 500.15L826.342 501.537C827.79 503.041 828.5 504.794 828.5 506.844H830.5ZM827.783 500.15C825.966 498.264 823.705 497.312 821.062 497.312V499.312C823.17 499.312 824.909 500.049 826.342 501.537L827.783 500.15ZM821.062 497.312H814.734V499.312H821.062V497.312ZM813.734 498.309L813.641 526.528L815.641 526.535L815.734 498.316L813.734 498.309ZM813.641 526.531C813.641 526.581 813.626 526.433 813.766 526.258C813.841 526.164 813.939 526.092 814.045 526.048C814.145 526.006 814.226 526 814.266 526V528C814.611 528 815.029 527.881 815.328 527.508C815.592 527.177 815.641 526.794 815.641 526.531H813.641ZM822.984 470.688H814.734V472.688H822.984V470.688ZM813.734 471.688V486.781H815.734V471.688H813.734ZM814.734 487.781H822.984V485.781H814.734V487.781ZM822.984 487.781C825.232 487.781 827.225 486.932 828.927 485.3L827.542 483.856C826.181 485.162 824.674 485.781 822.984 485.781V487.781ZM828.919 485.307C830.681 483.651 831.578 481.591 831.578 479.188H829.578C829.578 481.034 828.913 482.568 827.549 483.849L828.919 485.307ZM831.578 479.188C831.578 476.877 830.713 474.873 829.028 473.223L827.629 474.652C828.944 475.94 829.578 477.435 829.578 479.188H831.578ZM829.035 473.23C827.354 471.549 825.32 470.688 822.984 470.688V472.688C824.773 472.688 826.303 473.326 827.621 474.645L829.035 473.23ZM856.219 525.312L855.695 526.164L855.699 526.167L856.219 525.312ZM849.375 518.328L848.508 518.826L848.514 518.837L849.375 518.328ZM860.578 514.109L859.842 514.786L859.849 514.793L860.578 514.109ZM870.75 514.062L871.487 514.739L871.493 514.731L870.75 514.062ZM868.266 502.531L867.736 503.379L867.752 503.39L867.769 503.399L868.266 502.531ZM866.297 501.406L865.782 502.264L865.802 502.276L865.823 502.287L866.297 501.406ZM860.297 498.078L859.798 498.945L859.808 498.95L859.818 498.956L860.297 498.078ZM857.297 496.391L856.789 497.252L856.802 497.26L856.816 497.267L857.297 496.391ZM849.469 488.656L848.589 489.131L848.595 489.142L849.469 488.656ZM849.562 468.5L848.711 467.976L848.708 467.98L849.562 468.5ZM856.406 461.75L856.914 462.612L856.917 462.61L856.406 461.75ZM875.016 461.75L875.533 460.894L875.526 460.89L875.016 461.75ZM881.812 468.594L880.952 469.104L880.957 469.111L881.812 468.594ZM872.859 486.031H873.859L873.859 486.019L872.859 486.031ZM872.766 478.156H871.766L871.766 478.168L872.766 478.156ZM859.781 483.406L858.932 483.935L858.936 483.941L858.941 483.948L859.781 483.406ZM864.703 487.438L864.228 488.318L864.242 488.325L864.256 488.332L864.703 487.438ZM869.438 490.062L868.941 490.931L868.956 490.939L868.971 490.947L869.438 490.062ZM872.484 491.703L872.001 492.579L872.013 492.585L872.025 492.591L872.484 491.703ZM874.125 492.547L874.613 491.674L874.593 491.663L874.572 491.652L874.125 492.547ZM881.672 499.109L880.857 499.689L880.861 499.695L881.672 499.109ZM881.953 518.516L882.814 519.025L882.818 519.018L881.953 518.516ZM865.641 526.938C862.415 526.938 859.455 526.112 856.739 524.458L855.699 526.167C858.732 528.013 862.053 528.938 865.641 528.938V526.938ZM856.743 524.461C854.039 522.797 851.873 520.587 850.236 517.819L848.514 518.837C850.315 521.882 852.711 524.328 855.695 526.164L856.743 524.461ZM850.242 517.83C848.645 515.049 847.844 512.003 847.844 508.672H845.844C845.844 512.341 846.73 515.732 848.508 518.826L850.242 517.83ZM847.844 508.672V504.266H845.844V508.672H847.844ZM847.844 504.266C847.844 504.226 847.855 504.382 847.701 504.552C847.53 504.739 847.336 504.75 847.312 504.75V502.75C846.976 502.75 846.548 502.847 846.221 503.206C845.911 503.548 845.844 503.962 845.844 504.266H847.844ZM847.312 504.75H858.094V502.75H847.312V504.75ZM858.094 504.75C858.042 504.75 857.95 504.741 857.841 504.691C857.727 504.639 857.633 504.559 857.566 504.467C857.449 504.306 857.469 504.185 857.469 504.266H859.469C859.469 504.002 859.426 503.624 859.184 503.291C858.898 502.898 858.475 502.75 858.094 502.75V504.75ZM857.469 504.266V508.672H859.469V504.266H857.469ZM857.469 508.672C857.469 511.014 858.265 513.069 859.842 514.786L861.315 513.433C860.079 512.088 859.469 510.517 859.469 508.672H857.469ZM859.849 514.793C861.434 516.485 863.382 517.359 865.641 517.359V515.359C863.962 515.359 862.534 514.734 861.308 513.425L859.849 514.793ZM865.641 517.359C867.933 517.359 869.899 516.467 871.487 514.739L870.013 513.386C868.788 514.72 867.348 515.359 865.641 515.359V517.359ZM871.493 514.731C873.058 512.992 873.859 510.959 873.859 508.672H871.859C871.859 510.447 871.254 512.008 870.007 513.394L871.493 514.731ZM873.859 508.672C873.859 505.808 871.965 503.493 868.762 501.663L867.769 503.399C870.692 505.069 871.859 506.848 871.859 508.672H873.859ZM868.796 501.683C868.27 501.355 867.593 500.968 866.771 500.526L865.823 502.287C866.626 502.719 867.261 503.083 867.736 503.379L868.796 501.683ZM866.811 500.549C866.014 500.071 865.064 499.532 863.961 498.934L863.007 500.691C864.093 501.281 865.017 501.804 865.782 502.264L866.811 500.549ZM863.961 498.934C862.868 498.34 861.806 497.762 860.776 497.2L859.818 498.956C860.85 499.519 861.913 500.097 863.007 500.691L863.961 498.934ZM860.796 497.212C859.759 496.615 858.753 496.049 857.778 495.514L856.816 497.267C857.778 497.795 858.772 498.354 859.798 498.945L860.796 497.212ZM857.805 495.529C854.435 493.543 851.963 491.087 850.343 488.171L848.595 489.142C850.412 492.413 853.159 495.113 856.789 497.252L857.805 495.529ZM850.349 488.181C848.747 485.215 847.938 481.881 847.938 478.156H845.938C845.938 482.182 846.815 485.847 848.589 489.131L850.349 488.181ZM847.938 478.156C847.938 474.766 848.768 471.729 850.417 469.02L848.708 467.98C846.857 471.021 845.938 474.422 845.938 478.156H847.938ZM850.414 469.024C852.081 466.316 854.245 464.183 856.914 462.612L855.899 460.888C852.942 462.629 850.544 464.997 848.711 467.976L850.414 469.024ZM856.917 462.61C859.606 461.014 862.507 460.219 865.641 460.219V458.219C862.149 458.219 858.894 459.111 855.896 460.89L856.917 462.61ZM865.641 460.219C868.873 460.219 871.821 461.017 874.505 462.61L875.526 460.89C872.523 459.108 869.221 458.219 865.641 458.219V460.219ZM874.498 462.606C877.202 464.24 879.349 466.403 880.953 469.104L882.672 468.083C880.901 465.097 878.517 462.698 875.533 460.894L874.498 462.606ZM880.957 469.111C882.575 471.789 883.391 474.795 883.391 478.156H885.391C885.391 474.455 884.487 471.086 882.668 468.076L880.957 469.111ZM883.391 478.156V486.031H885.391V478.156H883.391ZM883.391 486.031C883.391 486.002 883.399 485.797 883.59 485.605C883.781 485.414 883.986 485.406 884.016 485.406V487.406C884.295 487.406 884.688 487.336 885.004 487.02C885.32 486.703 885.391 486.31 885.391 486.031H883.391ZM884.016 485.406H873.234V487.406H884.016V485.406ZM873.234 485.406C873.264 485.406 873.469 485.414 873.66 485.605C873.851 485.797 873.859 486.002 873.859 486.031H871.859C871.859 486.31 871.93 486.703 872.246 487.02C872.562 487.336 872.955 487.406 873.234 487.406V485.406ZM873.859 486.019L873.766 478.144L871.766 478.168L871.859 486.043L873.859 486.019ZM873.766 478.156C873.766 475.679 872.982 473.584 871.363 471.965L869.949 473.379C871.143 474.572 871.766 476.133 871.766 478.156H873.766ZM871.363 471.965C869.775 470.377 867.851 469.562 865.641 469.562V471.562C867.305 471.562 868.725 472.155 869.949 473.379L871.363 471.965ZM865.641 469.562C863.382 469.562 861.434 470.437 859.849 472.129L861.308 473.496C862.534 472.188 863.962 471.562 865.641 471.562V469.562ZM859.849 472.129C858.268 473.815 857.469 475.841 857.469 478.156H859.469C859.469 476.347 860.076 474.81 861.308 473.496L859.849 472.129ZM857.469 478.156C857.469 480.388 857.936 482.333 858.932 483.935L860.63 482.878C859.877 481.667 859.469 480.112 859.469 478.156H857.469ZM858.941 483.948C859.978 485.558 861.786 487 864.228 488.318L865.178 486.557C862.87 485.312 861.397 484.067 860.622 482.865L858.941 483.948ZM864.256 488.332C864.484 488.446 865.042 488.747 865.954 489.251L866.921 487.499C866.02 487.003 865.422 486.679 865.15 486.543L864.256 488.332ZM865.954 489.251C866.855 489.748 867.851 490.308 868.941 490.931L869.934 489.194C868.836 488.567 867.832 488.002 866.921 487.499L865.954 489.251ZM868.971 490.947C870.091 491.538 871.102 492.082 872.001 492.579L872.967 490.828C872.055 490.324 871.034 489.774 869.904 489.178L868.971 490.947ZM872.025 492.591C872.928 493.059 873.483 493.344 873.678 493.441L874.572 491.652C874.392 491.563 873.853 491.285 872.944 490.815L872.025 492.591ZM873.637 493.42C876.714 495.139 879.111 497.233 880.857 499.689L882.487 498.53C880.545 495.799 877.911 493.517 874.613 491.674L873.637 493.42ZM880.861 499.695C882.592 502.089 883.484 505.062 883.484 508.672H885.484C885.484 504.72 884.502 501.317 882.482 498.524L880.861 499.695ZM883.484 508.672C883.484 512.168 882.68 515.273 881.088 518.013L882.818 519.018C884.602 515.946 885.484 512.489 885.484 508.672H883.484ZM881.092 518.007C879.457 520.771 877.295 522.946 874.599 524.546L875.62 526.266C878.611 524.491 881.012 522.072 882.814 519.025L881.092 518.007ZM874.599 524.546C871.917 526.138 868.939 526.938 865.641 526.938V528.938C869.28 528.938 872.614 528.05 875.62 526.266L874.599 524.546Z" fill="white" mask="url(#path-2-outside-1_1_15)"/>
<path d="M172 193.5L173.258 193.071C185.536 188.886 199.101 193.345 206.5 204C197.622 195.756 185.561 191.846 173.536 193.313L172 193.5Z" stroke="white"/>
<path d="M148.5 170.5L153.5 171.5L158.5 170H155.401C154.147 170 152.906 169.745 151.753 169.251V169.251C150.611 168.762 149.643 167.939 148.976 166.891L148.112 165.534C147.04 163.849 146.139 162.061 145.422 160.197L144 156.5L150.862 165.078C151.597 165.996 152.632 166.626 153.786 166.857L159.5 168L157.934 166.747C157.319 166.255 156.604 165.901 155.84 165.71V165.71C153.995 165.249 152.344 164.212 151.126 162.751L145.5 156L155.117 161.436C156.364 162.14 157.485 163.046 158.437 164.116L159.319 165.109C160.346 166.264 161.945 166.724 163.429 166.292L170.073 164.354C171.958 163.804 173.98 163.967 175.753 164.811L181.819 167.699C182.935 168.231 184.113 168.623 185.326 168.865L188.32 169.464C188.44 169.488 188.562 169.5 188.684 169.5V169.5C189.549 169.5 190.403 169.701 191.177 170.089L191.627 170.314C191.874 170.437 192.1 170.6 192.295 170.795L194 172.5L199 178.5L206 184L220 192L229 197.5L232 200L234.324 201.43C236.737 202.915 237.731 205.922 236.679 208.553V208.553C236.56 208.849 236.491 209.163 236.475 209.481L236 218.5V218.552C236 219.799 235.505 220.995 234.623 221.877V221.877C234.541 221.959 234.45 222.03 234.351 222.089L234.264 222.142C232.972 222.917 231.304 222.605 230.379 221.416L228.5 219L228.08 218.58C226.796 217.296 224.917 216.809 223.171 217.308L222.5 217.5L219.237 219.364L222.718 221.58C224.061 222.434 225.315 223.42 226.463 224.523L228 226L225.903 228.097C224.382 229.618 222.259 230.376 220.118 230.162V230.162C219.114 230.061 218.237 229.441 217.808 228.529L217.343 227.541C213.237 218.815 204.101 213.6 194.5 214.5V214.5L180.292 216.868C168.318 218.864 159.584 205.805 166 195.5V195.5V195.5C147.038 202.642 140.191 226.228 152.674 242.189V242.189C156.16 246.648 160.781 250.088 166.052 252.151L181 258L187.045 260.198C190.325 261.391 193.38 263.129 196.081 265.339L197.5 266.5L191.414 265.283C185.55 264.11 179.495 264.301 173.717 265.842L167.5 267.5L166.057 266.795C153.3 260.565 143.816 249.175 140 235.5V235.5V235.5C140 248.026 146.145 259.754 156.444 266.884L159.5 269L133.76 275.27C125.225 277.349 116.223 276.184 108.5 272V272" stroke="white"/>
<path d="M197.5 183L191.931 177.103C190.022 175.082 187.545 173.688 184.826 173.106C182.946 172.703 181.107 172.128 179.332 171.388L176 170L177.677 171.341C179.883 173.106 182.307 174.581 184.889 175.728L190 178L185.018 176.755C184.501 176.625 184 177.017 184 177.55C184 179.141 185.355 180.396 186.942 180.274L189.65 180.065C190.195 180.023 190.735 180.196 191.155 180.546L191.351 180.709C192.754 181.878 194.464 182.62 196.276 182.847L197.5 183Z" stroke="white"/>
<path d="M148.5 170.5L130.901 179.566C96.7934 197.137 86.402 240.993 109 272V272" stroke="white"/>
<path d="M149 176L141.885 179.088C106.492 194.447 96.841 240.141 123 268.5V268.5" stroke="white"/>
<path d="M149 176L144.861 178.1C111.337 195.108 100.952 238.053 123 268.5V268.5" stroke="white"/>
<path d="M111 184L111.213 184.452L111.025 183.501L111 184ZM80 211.5L79.6692 211.125L80.1652 211.972L80 211.5ZM90 208L90.4429 208.232L91.0309 207.109L89.8348 207.528L90 208ZM77 236L76.6119 235.685L75.5562 236.984L77.1516 236.476L77 236ZM88 232.5L88.4258 232.762L89.1315 231.615L87.8484 232.024L88 232.5ZM68.5 248.5L68.3738 248.016L68.4688 248.999L68.5 248.5ZM91 253L91.1912 253.462L92.1646 253.059L91.237 252.56L91 253ZM76.5 259L76.3088 258.538L75.0187 259.072L76.3544 259.478L76.5 259ZM108.342 272.474C108.604 272.562 108.887 272.42 108.974 272.158C109.062 271.896 108.92 271.613 108.658 271.526L108.342 272.474ZM135.5 167.5L135.438 167.004L135.42 167.006L135.402 167.01L135.5 167.5ZM94.329 266.297L94.5862 265.869L94.329 266.297ZM102.061 269.854L102.22 269.379L102.061 269.854ZM85.6844 236.263L86.1103 236.525L85.6844 236.263ZM79.7796 232.579L80.1676 232.894L79.7796 232.579ZM108.315 185.263L108.528 185.716L108.315 185.263ZM108.816 183.891L108.792 184.39L108.816 183.891ZM90.5936 201.034L91.002 201.322L90.5936 201.034ZM85.0557 261.604L85.2013 261.126L85.0557 261.604ZM80.1652 211.972L90.1652 208.472L89.8348 207.528L79.8348 211.028L80.1652 211.972ZM89.5571 207.768L85.7519 215.032L86.6377 215.496L90.4429 208.232L89.5571 207.768ZM77.1516 236.476L88.1516 232.976L87.8484 232.024L76.8484 235.524L77.1516 236.476ZM68.4688 248.999L77.6877 249.575L77.7501 248.577L68.5312 248.001L68.4688 248.999ZM90.2452 253.161L90.763 253.44L91.237 252.56L90.7193 252.281L90.2452 253.161ZM90.8088 252.538L76.3088 258.538L76.6912 259.462L91.1912 253.462L90.8088 252.538ZM76.3544 259.478L84.9101 262.082L85.2013 261.126L76.6456 258.522L76.3544 259.478ZM121.27 172.056L118.317 173.583L118.777 174.472L121.73 172.944L121.27 172.056ZM135.402 167.01L135.141 167.062L135.337 168.042L135.598 167.99L135.402 167.01ZM136.763 166.838L135.438 167.004L135.562 167.996L136.887 167.83L136.763 166.838ZM108.792 184.39L110.975 184.499L111.025 183.501L108.841 183.391L108.792 184.39ZM110.787 183.548L108.102 184.811L108.528 185.716L111.213 184.452L110.787 183.548ZM91.4741 198.92L90.1851 200.746L91.002 201.322L92.2911 199.496L91.4741 198.92ZM85.447 206.027L79.6692 211.125L80.3308 211.875L86.1086 206.777L85.447 206.027ZM79.3915 232.264L76.6119 235.685L77.3881 236.315L80.1676 232.894L79.3915 232.264ZM87.5742 232.238L85.2586 236.001L86.1103 236.525L88.4258 232.762L87.5742 232.238ZM69.3788 247.754L68.3738 248.016L68.6262 248.984L69.6313 248.722L69.3788 247.754ZM90.3818 264.512L94.0717 266.726L94.5862 265.869L90.8963 263.655L90.3818 264.512ZM101.903 270.328L108.342 272.474L108.658 271.526L102.22 269.379L101.903 270.328ZM94.0717 266.726C96.543 268.209 99.1692 269.417 101.903 270.328L102.22 269.379C99.5546 268.491 96.995 267.314 94.5862 265.869L94.0717 266.726ZM85.2586 236.001C81.6782 241.819 75.9892 246.03 69.3788 247.754L69.6313 248.722C76.4911 246.932 82.3948 242.563 86.1103 236.525L85.2586 236.001ZM83.6204 222.08C83.2275 225.813 81.7583 229.351 79.3915 232.264L80.1676 232.894C82.6566 229.831 84.2017 226.11 84.6149 222.185L83.6204 222.08ZM108.102 184.811C104.202 186.646 100.614 189.083 97.4692 192.031L98.1531 192.761C101.222 189.884 104.723 187.507 108.528 185.716L108.102 184.811ZM93.7764 180.447C98.4547 182.786 103.568 184.129 108.792 184.39L108.841 183.391C103.756 183.137 98.7781 181.83 94.2236 179.553L93.7764 180.447ZM148.834 170.628C145.551 167.673 141.146 166.29 136.763 166.838L136.887 167.83C140.982 167.319 145.098 168.611 148.166 171.372L148.834 170.628ZM90.1851 200.746C88.8166 202.685 87.2264 204.457 85.447 206.027L86.1086 206.777C87.9464 205.155 89.5887 203.325 91.002 201.322L90.1851 200.746ZM77.6877 249.575C82.0833 249.85 86.3674 251.073 90.2452 253.161L90.7193 252.281C86.7143 250.124 82.2898 248.861 77.7501 248.577L77.6877 249.575ZM118.317 173.583C110.801 177.471 102.462 179.5 94 179.5V180.5C102.622 180.5 111.118 178.433 118.777 174.472L118.317 173.583ZM135.141 167.062C130.293 168.031 125.616 169.716 121.263 172.06L121.737 172.94C126.003 170.643 130.586 168.993 135.337 168.042L135.141 167.062ZM85.7519 215.032C84.6029 217.226 83.8796 219.617 83.6204 222.08L84.6149 222.185C84.8609 219.848 85.5473 217.578 86.6377 215.496L85.7519 215.032ZM84.9101 262.082C86.8265 262.665 88.6641 263.482 90.3818 264.512L90.8963 263.655C89.1085 262.582 87.1959 261.733 85.2013 261.126L84.9101 262.082ZM97.4692 192.031C95.2427 194.118 93.2341 196.426 91.4741 198.92L92.2911 199.496C94.012 197.058 95.9761 194.802 98.1531 192.761L97.4692 192.031Z" fill="white"/>
</svg>
